<svg xmlns="http://www.w3.org/2000/svg" viewBox="0 0 1920 203" width="1920" height="203">
	<style>
		tspan { white-space:pre }
		.shp0 { opacity: 0.302;fill: #fefeff } 
		.shp1 { fill: #ffffff } 
	</style>
	<path id="Layer" class="shp0" d="M197 7.05C185.72 11.45 169.75 18.32 161.5 22.33C153.25 26.33 144.47 30.99 142 32.68C139.53 34.36 132.78 39.67 127 44.46C121.22 49.25 112.45 57.55 107.5 62.9C102.55 68.25 95.97 75.53 92.88 79.07C89.78 82.6 82.17 92.48 75.95 101C69.73 109.52 63.7 117.4 62.54 118.5C61.11 119.86 57.9 120.87 52.47 121.66C48.09 122.29 40.9 124.03 36.5 125.51C32.1 127 24.55 130.3 19.73 132.86C19.73 132.86 0 143.02 0 144.22C0 150.02 0 203 0 203L1920 203L1920 123.53C1912.5 123.28 1915.25 123.62 1912.5 124.21C1909.75 124.8 1904.13 126.57 1900 128.13C1895.88 129.69 1888.67 133.23 1884 136C1879.33 138.76 1871 143.27 1865.5 146.02C1858.57 149.48 1853.81 151.18 1850 151.57C1846.97 151.87 1844.28 152.3 1844 152.52C1843.72 152.73 1838.78 153.59 1833 154.42C1824.82 155.6 1820.4 155.71 1813 154.94C1807.78 154.4 1798.1 152.85 1791.5 151.51C1784.9 150.16 1766.67 144.96 1751 139.97C1735.33 134.97 1717.33 129.38 1711 127.55C1701.1 124.69 1696.93 124.07 1681 123.1C1669.02 122.37 1659.68 122.3 1654.5 122.89C1650.1 123.4 1642.22 125.22 1637 126.95C1631.5 128.77 1622.45 133 1615.5 136.99C1608.9 140.78 1599.9 145.55 1595.5 147.58C1591.1 149.61 1584.8 151.63 1581.5 152.08C1578.2 152.52 1572.8 153.36 1569.5 153.94C1566.2 154.51 1559.56 154.99 1554.75 154.99C1549.94 155 1541.39 154.31 1535.75 153.47C1530.11 152.63 1520.55 150.62 1514.5 149C1508.45 147.38 1492.47 142.48 1479 138.11C1465.53 133.75 1450.9 129.17 1446.5 127.95C1442.1 126.72 1435.13 124.99 1431 124.1C1425.35 122.88 1418.45 122.5 1403 122.57C1384.82 122.66 1381.65 122.92 1375 124.91C1370.88 126.15 1364.35 128.61 1360.5 130.39C1356.65 132.17 1350.8 135.36 1347.5 137.47C1344.2 139.58 1337.67 143.22 1333 145.55C1328.33 147.88 1321.35 150.72 1317.5 151.86C1313.65 153 1309.38 153.91 1308 153.89C1306.63 153.87 1299.88 154.17 1293 154.55C1283.67 155.07 1277.71 154.83 1269.5 153.63C1263.45 152.75 1253.55 150.65 1247.5 148.98C1241.45 147.3 1224.8 142.15 1210.5 137.52C1196.2 132.89 1179.1 127.62 1172.5 125.81L1160.5 122.5C1141.33 118.35 1115.2 122.81 1107 125.47C1102.33 126.99 1095.01 129.98 1090.75 132.12C1086.49 134.25 1079.96 137.87 1076.25 140.16C1072.54 142.44 1066.35 145.77 1062.5 147.54C1058.65 149.32 1052.58 151.54 1049 152.48C1044.89 153.57 1036.98 154.38 1027.5 154.69C1016.48 155.04 1009.85 154.75 1002.5 153.56C997 152.67 987.33 150.59 981 148.92C974.67 147.26 960.73 143.03 950 139.53C939.27 136.03 924.42 131.35 917 129.14C909.58 126.93 901.25 124.61 898.5 123.99C895.75 123.37 889.9 122.46 885.5 121.96C880.7 121.42 871.9 121.42 863.5 121.97C853.64 122.62 846.91 123.64 840.75 125.44C835.94 126.85 828.29 129.86 823.75 132.13C819.21 134.4 813.48 137.64 811 139.33C808.52 141.02 802.45 144.31 797.5 146.64C792.55 148.97 784.67 151.88 780 153.1C773.25 154.88 768.82 155.33 758.5 155.3C751.16 155.29 741.15 154.54 735.5 153.6C730 152.68 721 150.84 715.5 149.51C710 148.18 692.23 142.75 676 137.45C659.77 132.14 640.88 126.53 634 124.98C627.13 123.42 617.23 121.83 612 121.44C606.08 120.99 599.29 121.17 594 121.91C589.33 122.56 582.35 123.77 578.5 124.6C574.65 125.43 568.13 127.47 564 129.13C559.88 130.8 551.77 135 546 138.47C540.23 141.95 532.58 146.11 529 147.72C525.42 149.33 518.67 151.73 514 153.06C507.01 155.04 503.36 155.46 493.5 155.38C486.9 155.33 477 154.73 471.5 154.05C466 153.38 456.55 151.54 450.5 149.97C444.45 148.41 426.9 143.01 411.5 137.99C396.1 132.96 377.2 127.3 369.5 125.39C357.34 122.39 355.05 119.57 338.5 118.85C334.67 118.68 322.15 120.84 321.33 121.02C313.83 122.68 294.35 130.37 290.5 132.35C286.65 134.34 279.23 138.46 274 141.5C268.77 144.55 261.01 148.39 256.75 150.02C252.49 151.66 245.06 153.7 240.25 154.56C235.44 155.42 228.13 156.12 224 156.13C219.88 156.14 212.9 155.59 208.5 154.91C204.1 154.23 200.17 153.41 199.76 153.09C199.35 152.76 198.54 145.08 197.96 136C197.09 122.58 197.17 116.98 198.38 106C199.2 98.58 199.68 92.16 199.44 91.75C199.2 91.34 192.7 89.54 185 87.75C177.3 85.96 171.56 84.22 172.25 83.88C172.94 83.54 175.3 82.96 177.5 82.6C179.7 82.23 185.32 81.22 190 80.34C194.68 79.46 199.07 78.24 199.77 77.62C200.46 77 201.3 74.02 201.62 71C201.95 67.98 203.47 61.23 205.01 56C206.54 50.77 208.71 44.25 209.82 41.5C210.93 38.75 214.63 30.65 218.04 23.5C221.46 16.35 224.26 9.6 224.27 8.5C224.28 7.4 223.77 4.81 223.14 2.75C222.26 -0.15 221.49 -0.99 219.75 -0.98C218.51 -0.96 208.28 2.65 197 7.05Z" />
	<path id="Layer" class="shp1" d="M186 13.05C174.72 17.45 158.75 24.32 150.5 28.33C142.25 32.33 133.47 36.99 131 38.68C128.53 40.36 121.78 45.67 116 50.46C110.22 55.25 101.45 63.55 96.5 68.9C91.55 74.25 84.97 81.53 81.88 85.07C78.78 88.6 71.17 98.48 64.95 107C58.73 115.52 52.7 123.4 51.54 124.5C50.11 125.86 46.9 126.87 41.47 127.66C37.09 128.29 29.9 130.03 25.5 131.51C21.1 133 13.55 136.3 8.73 138.86L-0.05 143.5L0 203L1920 203L1920 128C1909.54 128.88 1904.25 129.62 1901.5 130.21C1898.75 130.8 1893.13 132.57 1889 134.13C1884.88 135.69 1877.67 139.23 1873 142C1868.33 144.76 1860 149.27 1854.5 152.02C1847.57 155.48 1842.81 157.18 1839 157.57C1835.97 157.87 1833.28 158.3 1833 158.52C1832.72 158.73 1827.78 159.59 1822 160.42C1813.82 161.6 1809.4 161.71 1802 160.94C1796.78 160.4 1787.1 158.85 1780.5 157.51C1773.9 156.16 1755.67 150.96 1740 145.97C1724.33 140.97 1706.33 135.38 1700 133.55C1690.1 130.69 1685.76 128.65 1669.83 127.68C1657.85 126.95 1648.68 128.3 1643.5 128.89C1639.1 129.4 1631.22 131.22 1626 132.95C1620.5 134.77 1611.45 139 1604.5 142.99C1597.9 146.78 1588.9 151.55 1584.5 153.58C1580.1 155.61 1573.8 157.63 1570.5 158.08C1567.2 158.52 1561.8 159.36 1558.5 159.94C1555.2 160.51 1548.56 160.99 1543.75 160.99C1538.94 161 1530.39 160.31 1524.75 159.47C1519.11 158.63 1509.55 156.62 1503.5 155C1497.45 153.38 1481.47 148.48 1468 144.11C1454.53 139.75 1439.9 135.17 1435.5 133.95C1431.1 132.72 1424.13 130.99 1420 130.1C1414.35 128.88 1407.12 126.78 1391.67 126.85C1373.49 126.94 1370.65 128.92 1364 130.91C1359.88 132.15 1353.35 134.61 1349.5 136.39C1345.65 138.17 1339.8 141.36 1336.5 143.47C1333.2 145.58 1326.67 149.22 1322 151.55C1317.33 153.88 1310.35 156.72 1306.5 157.86C1302.65 159 1298.38 159.91 1297 159.89C1295.63 159.87 1288.88 160.17 1282 160.55C1272.67 161.07 1266.71 160.83 1258.5 159.63C1252.45 158.75 1242.55 156.65 1236.5 154.98C1230.45 153.3 1213.8 148.15 1199.5 143.52C1185.2 138.89 1168.1 133.62 1161.5 131.81C1161.5 131.81 1151.33 128.68 1149.5 128.5C1116.71 125.22 1104.2 128.81 1096 131.47C1091.33 132.99 1084.01 135.98 1079.75 138.12C1075.49 140.25 1068.96 143.87 1065.25 146.16C1061.54 148.44 1055.35 151.77 1051.5 153.54C1047.65 155.32 1041.58 157.54 1038 158.48C1033.89 159.57 1025.98 160.38 1016.5 160.69C1005.48 161.04 998.85 160.75 991.5 159.56C986 158.67 976.33 156.59 970 154.92C963.67 153.26 949.73 149.03 939 145.53C928.27 142.03 913.42 137.35 906 135.14C898.58 132.93 890.25 130.61 887.5 129.99C884.75 129.37 878.9 128.46 874.5 127.96C869.7 127.42 860.9 127.42 852.5 127.97C842.64 128.62 835.91 129.64 829.75 131.44C824.94 132.85 817.29 135.86 812.75 138.13C808.21 140.4 802.48 143.64 800 145.33C797.52 147.02 791.45 150.31 786.5 152.64C781.55 154.97 773.67 157.88 769 159.1C762.25 160.88 757.82 161.33 747.5 161.3C740.16 161.29 730.15 160.54 724.5 159.6C719 158.68 710 156.84 704.5 155.51C699 154.18 681.23 148.75 665 143.45C648.77 138.14 629.88 132.53 623 130.98C616.13 129.42 606.23 127.83 601 127.44C595.08 126.99 588.29 127.17 583 127.91C578.33 128.56 571.35 129.77 567.5 130.6C563.65 131.43 557.13 133.47 553 135.13C548.88 136.8 540.77 141 535 144.47C529.23 147.95 521.58 152.11 518 153.72C514.42 155.33 507.68 157.73 503 159.06C496.01 161.04 492.36 161.46 482.5 161.38C475.9 161.33 466 160.73 460.5 160.05C455 159.38 445.55 157.54 439.5 155.97C433.45 154.41 415.9 149.01 400.5 143.99C385.1 138.96 366.2 133.3 358.5 131.39C346.34 128.39 342.27 127.86 327.5 127.33C327.5 127.33 315.17 126.68 309.33 127.35C289.85 129.58 283.35 136.37 279.5 138.35C275.65 140.34 268.23 144.46 263 147.5C257.77 150.55 250.01 154.39 245.75 156.02C241.49 157.66 234.06 159.7 229.25 160.56C224.44 161.42 217.13 162.12 213 162.13C208.88 162.14 201.9 161.59 197.5 160.91C193.1 160.23 189.17 159.41 188.76 159.09C188.35 158.76 187.54 151.08 186.96 142C186.09 128.58 186.17 122.98 187.38 112C188.2 104.58 188.68 98.16 188.44 97.75C188.2 97.34 181.7 95.54 174 93.75C166.3 91.96 160.56 90.22 161.25 89.88C161.94 89.54 164.3 88.96 166.5 88.6C168.7 88.23 174.32 87.22 179 86.34C183.68 85.46 188.07 84.24 188.77 83.62C189.46 83 190.3 80.02 190.62 77C190.95 73.98 192.47 67.23 194.01 62C195.54 56.77 197.71 50.25 198.82 47.5C199.93 44.75 203.63 36.65 207.04 29.5C210.46 22.35 213.26 15.6 213.27 14.5C213.28 13.4 212.77 10.81 212.14 8.75C211.26 5.85 210.49 5.01 208.75 5.02C207.51 5.04 197.28 8.65 186 13.05Z" />
</svg>